<svg width="24" height="24" viewBox="0 0 24 24" fill="none" xmlns="http://www.w3.org/2000/svg">
<path d="M17 9.17002C16.8126 8.98377 16.5592 8.87923 16.295 8.87923C16.0308 8.87923 15.7774 8.98377 15.59 9.17002L12 12.71L8.46001 9.17002C8.27265 8.98377 8.0192 8.87923 7.75501 8.87923C7.49082 8.87923 7.23737 8.98377 7.05001 9.17002C6.95628 9.26298 6.88189 9.37358 6.83112 9.49544C6.78035 9.6173 6.75421 9.74801 6.75421 9.88002C6.75421 10.012 6.78035 10.1427 6.83112 10.2646C6.88189 10.3865 6.95628 10.4971 7.05001 10.59L11.29 14.83C11.383 14.9237 11.4936 14.9981 11.6154 15.0489C11.7373 15.0997 11.868 15.1258 12 15.1258C12.132 15.1258 12.2627 15.0997 12.3846 15.0489C12.5064 14.9981 12.617 14.9237 12.71 14.83L17 10.59C17.0937 10.4971 17.1681 10.3865 17.2189 10.2646C17.2697 10.1427 17.2958 10.012 17.2958 9.88002C17.2958 9.74801 17.2697 9.6173 17.2189 9.49544C17.1681 9.37358 17.0937 9.26298 17 9.17002Z" fill="white"/>
</svg>
