<svg width="22" height="22" viewBox="0 0 22 22" fill="none" xmlns="http://www.w3.org/2000/svg">
<path d="M12.8333 16.5C13.0765 16.5 13.3096 16.4034 13.4815 16.2315C13.6534 16.0596 13.75 15.8265 13.75 15.5833V13.75C13.75 13.5069 13.6534 13.2737 13.4815 13.1018C13.3096 12.9299 13.0765 12.8333 12.8333 12.8333C12.5902 12.8333 12.3571 12.9299 12.1852 13.1018C12.0132 13.2737 11.9167 13.5069 11.9167 13.75V15.5833C11.9167 15.8265 12.0132 16.0596 12.1852 16.2315C12.3571 16.4034 12.5902 16.5 12.8333 16.5ZM9.16667 16.5C9.40979 16.5 9.64294 16.4034 9.81485 16.2315C9.98676 16.0596 10.0833 15.8265 10.0833 15.5833V13.75C10.0833 13.5069 9.98676 13.2737 9.81485 13.1018C9.64294 12.9299 9.40979 12.8333 9.16667 12.8333C8.92355 12.8333 8.6904 12.9299 8.51849 13.1018C8.34658 13.2737 8.25 13.5069 8.25 13.75V15.5833C8.25 15.8265 8.34658 16.0596 8.51849 16.2315C8.6904 16.4034 8.92355 16.5 9.16667 16.5ZM17.4167 5.5H16.1517L14.5658 2.3375C14.5174 2.22114 14.4454 2.11601 14.3545 2.02871C14.2636 1.9414 14.1556 1.87378 14.0374 1.83008C13.9192 1.78637 13.7932 1.76753 13.6673 1.77472C13.5415 1.7819 13.4185 1.81497 13.306 1.87185C13.1935 1.92872 13.0939 2.00819 13.0136 2.10528C12.9332 2.20238 12.8737 2.315 12.8388 2.43613C12.8039 2.55726 12.7943 2.68428 12.8107 2.80926C12.8272 2.93424 12.8692 3.0545 12.9342 3.1625L14.0983 5.5H7.90167L9.06584 3.1625C9.15481 2.94884 9.15967 2.70942 9.07942 2.49232C8.99918 2.27522 8.83978 2.09651 8.63323 1.99207C8.42667 1.88764 8.18826 1.8652 7.96585 1.92928C7.74344 1.99335 7.5535 2.13918 7.43417 2.3375L5.84834 5.5H4.58334C3.93543 5.50986 3.31181 5.74819 2.82247 6.17296C2.33312 6.59773 2.0095 7.18165 1.90866 7.82174C1.80782 8.46184 1.93626 9.11697 2.27131 9.67161C2.60636 10.2263 3.1265 10.6448 3.74 10.8533L4.41834 17.6917C4.48674 18.3724 4.8064 19.0031 5.3149 19.4608C5.8234 19.9184 6.48423 20.1701 7.16834 20.1667H14.85C15.5341 20.1701 16.1949 19.9184 16.7034 19.4608C17.2119 19.0031 17.5316 18.3724 17.6 17.6917L18.2783 10.8533C18.8932 10.6441 19.4141 10.2241 19.749 9.66761C20.0838 9.11112 20.2108 8.45408 20.1076 7.81289C20.0044 7.17169 19.6776 6.58771 19.1851 6.16438C18.6925 5.74105 18.0661 5.5057 17.4167 5.5V5.5ZM15.7575 17.5083C15.7347 17.7352 15.6281 17.9455 15.4586 18.098C15.2891 18.2506 15.0689 18.3345 14.8408 18.3333H7.15917C6.93113 18.3345 6.71086 18.2506 6.54136 18.098C6.37186 17.9455 6.2653 17.7352 6.2425 17.5083L5.59167 11H16.4083L15.7575 17.5083ZM17.4167 9.16667H4.58334C4.34022 9.16667 4.10706 9.07009 3.93516 8.89818C3.76325 8.72628 3.66667 8.49312 3.66667 8.25C3.66667 8.00689 3.76325 7.77373 3.93516 7.60182C4.10706 7.42991 4.34022 7.33334 4.58334 7.33334H17.4167C17.6598 7.33334 17.8929 7.42991 18.0649 7.60182C18.2368 7.77373 18.3333 8.00689 18.3333 8.25C18.3333 8.49312 18.2368 8.72628 18.0649 8.89818C17.8929 9.07009 17.6598 9.16667 17.4167 9.16667Z" fill="#0A0A0A"/>
</svg>
