<svg width="22" height="22" viewBox="0 0 22 22" fill="none" xmlns="http://www.w3.org/2000/svg">
<path d="M7.76212 7.69498L7.76006 7.69665L7.7581 7.69856L7.76212 7.69498ZM16.8867 7.52399C16.8229 7.46252 16.7522 7.40874 16.6759 7.36375C16.5679 7.30019 16.448 7.25945 16.3236 7.24407C16.1993 7.22868 16.0731 7.23897 15.9528 7.27429C15.8326 7.30961 15.7209 7.36922 15.6246 7.44943C15.5284 7.52964 15.4496 7.62875 15.3931 7.74063C15.0773 8.36276 14.6418 8.91642 14.1116 9.36985C14.1927 8.91299 14.2336 8.4499 14.2338 7.9859C14.2355 6.57432 13.8631 5.18751 13.1546 3.96665C12.446 2.74579 11.4266 1.73449 10.2001 1.03573C10.065 0.959141 9.91264 0.918132 9.75734 0.916551C9.60204 0.914971 9.44888 0.952871 9.31224 1.02669C9.1756 1.10052 9.05995 1.20785 8.97615 1.33861C8.89235 1.46937 8.84315 1.61928 8.83316 1.77426C8.78186 2.64342 8.55464 3.49312 8.16526 4.27187C7.77589 5.05063 7.23246 5.74222 6.56792 6.30476L6.35665 6.47663C5.66174 6.94422 5.04664 7.52063 4.53496 8.18374C3.73958 9.18576 3.1886 10.3593 2.92571 11.6113C2.66282 12.8633 2.69526 14.1594 3.02044 15.3967C3.34562 16.634 3.95461 17.7785 4.79911 18.7395C5.64361 19.7005 6.7004 20.4515 7.88566 20.9329C8.02483 20.9898 8.17585 21.0115 8.32541 20.9963C8.47496 20.981 8.61846 20.9291 8.74323 20.8452C8.86801 20.7614 8.97022 20.6481 9.04087 20.5154C9.11152 20.3827 9.14843 20.2346 9.14833 20.0843C9.14768 19.9871 9.13228 19.8905 9.10268 19.7978C8.8976 19.0269 8.83854 18.2245 8.92856 17.4319C9.79595 19.0679 11.1883 20.3646 12.8817 21.1138C13.0884 21.2062 13.3221 21.2187 13.5374 21.1487C14.8753 20.7168 16.0806 19.9501 17.0388 18.9212C17.9969 17.8924 18.676 16.6356 19.0116 15.2704C19.3472 13.9051 19.3282 12.4767 18.9563 11.1209C18.5844 9.76511 17.872 8.52692 16.8867 7.52399ZM13.3073 19.2858C12.5083 18.8808 11.8034 18.3122 11.2386 17.617C10.6737 16.9217 10.2615 16.1154 10.0287 15.2503C9.95764 14.959 9.90265 14.6641 9.86401 14.3668C9.83783 14.1774 9.75313 14.001 9.62176 13.8622C9.49039 13.7233 9.31891 13.629 9.13131 13.5924C9.07351 13.581 9.01474 13.5753 8.95583 13.5754C8.79472 13.5754 8.63644 13.6178 8.49696 13.6984C8.35747 13.7791 8.24172 13.895 8.16136 14.0347C7.40077 15.3465 7.01827 16.8434 7.05625 18.3593C6.38731 17.8392 5.82824 17.1915 5.41146 16.4537C4.99467 15.716 4.72846 14.9028 4.62825 14.0614C4.52804 13.22 4.59582 12.3671 4.82767 11.5521C5.05952 10.7371 5.45082 9.97616 5.9789 9.31349C6.37987 8.79267 6.86357 8.34117 7.41074 7.97699C7.43443 7.9617 7.45715 7.94495 7.47877 7.92686C7.47877 7.92686 7.75074 7.70183 7.76003 7.69668C9.066 6.59206 9.99487 5.10757 10.4172 3.45005C11.416 4.37334 12.082 5.60058 12.3117 6.94118C12.5415 8.28179 12.3222 9.66075 11.6879 10.8639C11.6041 11.0245 11.5697 11.2063 11.5891 11.3863C11.6085 11.5664 11.6808 11.7367 11.7968 11.8758C11.9129 12.0148 12.0675 12.1163 12.2412 12.1676C12.4149 12.2189 12.5999 12.2175 12.7729 12.1638C14.177 11.7236 15.4126 10.8639 16.3133 9.70024C16.8547 10.4998 17.2086 11.4113 17.3487 12.3667C17.4888 13.3221 17.4115 14.2968 17.1226 15.2182C16.8337 16.1395 16.3405 16.9838 15.6799 17.6881C15.0193 18.3924 14.2083 18.9385 13.3073 19.2858L13.3073 19.2858Z" fill="#0A0A0A"/>
</svg>
