<svg width="22" height="22" viewBox="0 0 22 22" fill="none" xmlns="http://www.w3.org/2000/svg">
<path d="M8.25 9.16668H9.16666C9.40978 9.16668 9.64294 9.0701 9.81484 8.89819C9.98675 8.72628 10.0833 8.49313 10.0833 8.25001C10.0833 8.0069 9.98675 7.77374 9.81484 7.60183C9.64294 7.42992 9.40978 7.33334 9.16666 7.33334H8.25C8.00688 7.33334 7.77372 7.42992 7.60182 7.60183C7.42991 7.77374 7.33333 8.0069 7.33333 8.25001C7.33333 8.49313 7.42991 8.72628 7.60182 8.89819C7.77372 9.0701 8.00688 9.16668 8.25 9.16668V9.16668ZM8.25 11C8.00688 11 7.77372 11.0966 7.60182 11.2685C7.42991 11.4404 7.33333 11.6736 7.33333 11.9167C7.33333 12.1598 7.42991 12.3929 7.60182 12.5649C7.77372 12.7368 8.00688 12.8333 8.25 12.8333H13.75C13.9931 12.8333 14.2263 12.7368 14.3982 12.5649C14.5701 12.3929 14.6667 12.1598 14.6667 11.9167C14.6667 11.6736 14.5701 11.4404 14.3982 11.2685C14.2263 11.0966 13.9931 11 13.75 11H8.25ZM18.3333 8.19501C18.3238 8.1108 18.3053 8.02784 18.2783 7.94751V7.86501C18.2343 7.77076 18.1755 7.68412 18.1042 7.60834V7.60834L12.6042 2.10834C12.5284 2.03704 12.4417 1.97825 12.3475 1.93418C12.3201 1.93029 12.2924 1.93029 12.265 1.93418C12.1719 1.88077 12.069 1.84649 11.9625 1.83334H6.41666C5.68732 1.83334 4.98785 2.12307 4.47212 2.6388C3.9564 3.15453 3.66666 3.854 3.66666 4.58334V17.4167C3.66666 18.146 3.9564 18.8455 4.47212 19.3612C4.98785 19.8769 5.68732 20.1667 6.41666 20.1667H15.5833C16.3127 20.1667 17.0121 19.8769 17.5279 19.3612C18.0436 18.8455 18.3333 18.146 18.3333 17.4167V8.25001C18.3333 8.25001 18.3333 8.25001 18.3333 8.19501ZM12.8333 4.95918L15.2075 7.33334H13.75C13.5069 7.33334 13.2737 7.23677 13.1018 7.06486C12.9299 6.89295 12.8333 6.65979 12.8333 6.41668V4.95918ZM16.5 17.4167C16.5 17.6598 16.4034 17.893 16.2315 18.0649C16.0596 18.2368 15.8264 18.3333 15.5833 18.3333H6.41666C6.17355 18.3333 5.94039 18.2368 5.76848 18.0649C5.59657 17.893 5.5 17.6598 5.5 17.4167V4.58334C5.5 4.34023 5.59657 4.10707 5.76848 3.93516C5.94039 3.76325 6.17355 3.66668 6.41666 3.66668H11V6.41668C11 7.14602 11.2897 7.8455 11.8055 8.36122C12.3212 8.87695 13.0207 9.16668 13.75 9.16668H16.5V17.4167ZM13.75 14.6667H8.25C8.00688 14.6667 7.77372 14.7633 7.60182 14.9352C7.42991 15.1071 7.33333 15.3402 7.33333 15.5833C7.33333 15.8265 7.42991 16.0596 7.60182 16.2315C7.77372 16.4034 8.00688 16.5 8.25 16.5H13.75C13.9931 16.5 14.2263 16.4034 14.3982 16.2315C14.5701 16.0596 14.6667 15.8265 14.6667 15.5833C14.6667 15.3402 14.5701 15.1071 14.3982 14.9352C14.2263 14.7633 13.9931 14.6667 13.75 14.6667Z" fill="#0A0A0A"/>
</svg>
