<svg width="238" height="175" viewBox="0 0 238 175" fill="none" xmlns="http://www.w3.org/2000/svg">
<g clip-path="url(#clip0_708_428)">
<path d="M46.5575 3.88674L8.60478 41.8769C5.51974 44.965 7.70469 50.2451 12.0675 50.2451H225.933C230.295 50.2451 232.48 44.965 229.395 41.8769L191.443 3.88674C190.524 2.96744 189.279 2.45099 187.98 2.45099H50.0202C48.7214 2.45099 47.4758 2.96744 46.5575 3.88674Z" fill="#FD1E00" stroke="black" stroke-width="10"/>
<path d="M23.5062 167.402V56.1274C23.5062 53.4201 25.6987 51.2255 28.4033 51.2255H213.759C216.464 51.2255 218.656 53.4201 218.656 56.1274V167.402C218.656 170.109 216.464 172.304 213.759 172.304H28.4033C25.6987 172.304 23.5062 170.109 23.5062 167.402Z" fill="#FAFF01" stroke="black" stroke-width="10"/>
<path d="M90.8416 100.245H49.7058C47.0012 100.245 44.8086 102.44 44.8086 105.147V163.848H95.7387V105.147C95.7387 102.44 93.5462 100.245 90.8416 100.245Z" fill="#8B8B8B"/>
<path d="M44.8086 163.848H95.7387M95.7387 171.324V163.848V171.324ZM44.8086 171.324V163.848V171.324ZM44.8086 163.848V105.147C44.8086 102.44 47.0012 100.245 49.7058 100.245H90.8416C93.5462 100.245 95.7387 102.44 95.7387 105.147V163.848H44.8086Z" stroke="black" stroke-width="10"/>
<path d="M188.294 100.245H126.101C123.396 100.245 121.204 102.44 121.204 105.147V143.137C121.204 145.845 123.396 148.039 126.101 148.039H188.294C190.999 148.039 193.191 145.845 193.191 143.137V105.147C193.191 102.44 190.999 100.245 188.294 100.245Z" fill="#8B8B8B" stroke="black" stroke-width="10"/>
<path d="M14.6914 79.1667V54.902C14.6914 52.1946 16.8839 50 19.5885 50H221.105C223.81 50 226.002 52.1946 226.002 54.902V79.1667C226.002 81.874 223.81 84.0686 221.105 84.0686H19.5885C16.8839 84.0686 14.6914 81.874 14.6914 79.1667Z" fill="#2D52E8" stroke="black" stroke-width="10"/>
<path d="M35.7107 71.5382L37.5012 61.3971H38.7561L39.5672 62.2627L37.6466 72.549H36.2463L35.7107 71.5382ZM35.6495 61.3971L37.1569 71.6147L36.56 72.549H34.9379L33.0556 61.3971H35.6495ZM40.1028 71.5608L41.6025 61.3971H44.1812L42.2989 72.549H40.6843L40.1028 71.5608ZM39.7126 61.3971L41.5643 71.599L40.9904 72.549H39.5902L37.616 62.2471L38.4654 61.3971H39.7126ZM50.7469 63.7407L48.6731 72.549H45.8573L49.2929 61.3971H51.053L50.7469 63.7407ZM52.3688 72.549L50.2954 63.7407L49.9511 61.3971H51.7415L55.1847 72.549H52.3688ZM52.453 68.3902V70.4657H47.6248V68.3902H52.453ZM57.6797 61.3971H61.4902C62.235 61.3971 62.88 61.5245 63.426 61.7799C63.9716 62.0353 64.3903 62.4132 64.6807 62.9137C64.9769 63.4142 65.1248 64.0319 65.1248 64.7672C65.1248 65.4054 65.043 65.9392 64.88 66.3681C64.7218 66.7971 64.497 67.152 64.2066 67.4323C63.9157 67.7083 63.5739 67.9358 63.1812 68.1142L62.332 68.6122H59.3399L59.3247 66.5363H61.429C61.6684 66.5363 61.8678 66.475 62.0259 66.3524C62.1836 66.2299 62.3012 66.0564 62.3775 65.8319C62.4593 65.602 62.5 65.3289 62.5 65.0122C62.5 64.6907 62.4618 64.4147 62.3854 64.1853C62.309 63.9554 62.1964 63.7789 62.0485 63.6564C61.906 63.5338 61.7199 63.4725 61.4902 63.4725H60.2963V72.549H57.6797V61.3971ZM62.6151 72.549L60.6405 67.6167L63.4108 67.601L65.4231 72.4343V72.549H62.6151ZM73.1208 61.3971H75.7457V68.9872C75.7457 69.8554 75.59 70.5652 75.279 71.1167C74.9676 71.6632 74.5317 72.0637 73.9705 72.3191C73.4093 72.5745 72.7462 72.702 71.9808 72.702C71.2208 72.702 70.5577 72.5745 69.9916 72.3191C69.4255 72.0637 68.9813 71.6632 68.6601 71.1167C68.3437 70.5652 68.1855 69.8554 68.1855 68.9872V61.3971H70.8177V68.9872C70.8177 69.447 70.8589 69.7966 70.9402 70.0368C71.0268 70.2716 71.1571 70.4299 71.3305 70.5118C71.5038 70.5931 71.7208 70.6343 71.9808 70.6343C72.2462 70.6343 72.4632 70.5931 72.6311 70.5118C72.7996 70.4299 72.922 70.2716 72.9984 70.0368C73.0802 69.7966 73.1208 69.447 73.1208 68.9872V61.3971ZM86.9327 61.3971V72.549H84.3235L81.5307 65.6098V72.549H78.9137V61.3971H81.5307L84.3235 68.3363V61.3971H86.9327ZM97.9517 66.5902V71.247C97.7783 71.4157 97.5232 71.6147 97.1863 71.8441C96.8498 72.074 96.4262 72.276 95.9165 72.4495C95.4111 72.6181 94.8146 72.702 94.1256 72.702C93.488 72.702 92.914 72.6054 92.4042 72.4113C91.894 72.2171 91.4576 71.9235 91.0957 71.5304C90.7387 71.1319 90.463 70.6343 90.2691 70.0368C90.0752 69.4343 89.9787 68.7221 89.9787 67.9V66.0539C89.9787 65.2368 90.0752 64.5245 90.2691 63.9172C90.4684 63.3093 90.7461 62.8088 91.1031 62.4157C91.4606 62.0225 91.8837 61.7289 92.3734 61.5348C92.8631 61.3358 93.4067 61.2363 94.0031 61.2363C94.8959 61.2363 95.628 61.3868 96.1995 61.6882C96.7759 61.9892 97.2068 62.4235 97.4923 62.9902C97.7783 63.552 97.9287 64.2333 97.9439 65.0353H95.4341C95.4135 64.6113 95.3523 64.272 95.2504 64.0167C95.1486 63.7613 95.0031 63.5799 94.8146 63.4725C94.6256 63.3603 94.3861 63.3044 94.0952 63.3044C93.8606 63.3044 93.6515 63.35 93.4679 63.4421C93.2891 63.5338 93.1359 63.6872 93.0085 63.9015C92.8861 64.1108 92.7916 64.3917 92.7255 64.7441C92.6643 65.0966 92.6334 65.5279 92.6334 66.0387V67.9C92.6334 68.4054 92.6643 68.8343 92.7255 69.1868C92.7867 69.5387 92.8812 69.8196 93.0085 70.0289C93.1359 70.2382 93.3068 70.3917 93.5213 70.4887C93.7353 70.5858 94.0007 70.6343 94.3171 70.6343C94.511 70.6343 94.6716 70.6088 94.7989 70.5578C94.9267 70.5064 95.0335 70.448 95.1207 70.3814C95.2074 70.3152 95.2784 70.2691 95.3347 70.2436V68.4358H94.0031V66.5902H97.9517ZM106.277 61.3971H110.088C110.833 61.3971 111.478 61.5245 112.024 61.7799C112.57 62.0353 112.988 62.4132 113.279 62.9137C113.574 63.4142 113.722 64.0319 113.722 64.7672C113.722 65.4054 113.641 65.9392 113.478 66.3681C113.319 66.7971 113.095 67.152 112.804 67.4323C112.513 67.7083 112.171 67.9358 111.779 68.1142L110.93 68.6122H107.938L107.922 66.5363H110.027C110.266 66.5363 110.465 66.475 110.623 66.3524C110.782 66.2299 110.899 66.0564 110.976 65.8319C111.057 65.602 111.098 65.3289 111.098 65.0122C111.098 64.6907 111.06 64.4147 110.983 64.1853C110.907 63.9554 110.794 63.7789 110.646 63.6564C110.504 63.5338 110.317 63.4725 110.088 63.4725H108.894V72.549H106.277V61.3971ZM111.213 72.549L109.239 67.6167L112.008 67.601L114.021 72.4343V72.549H111.213ZM121.015 63.7407L118.941 72.549H116.125L119.561 61.3971H121.321L121.015 63.7407ZM122.637 72.549L120.564 63.7407L120.219 61.3971H122.01L125.453 72.549H122.637ZM122.721 68.3902V70.4657H117.893V68.3902H122.721ZM134.214 65.824V67.8922H129.7V65.824H134.214ZM130.557 61.3971V72.549H127.94V61.3971H130.557ZM135.982 61.3971V72.549H133.365V61.3971H135.982ZM140.444 61.3971H142.563L144.315 69.1559L146.067 61.3971H148.179L145.18 72.549H143.45L140.444 61.3971ZM139.135 61.3971H141.331L141.752 69.9451V72.549H139.135V61.3971ZM147.292 61.3971H149.495V72.549H146.871V69.9451L147.292 61.3971ZM157.017 63.7407L154.943 72.549H152.128L155.563 61.3971H157.323L157.017 63.7407ZM158.639 72.549L156.566 63.7407L156.222 61.3971H158.012L161.455 72.549H158.639ZM158.723 68.3902V70.4657H153.895V68.3902H158.723ZM167.883 61.3971V72.549H165.259V61.3971H167.883ZM170.584 61.3971V63.4725H162.634V61.3971H170.584ZM186.019 66.5902V71.247C185.845 71.4157 185.59 71.6147 185.253 71.8441C184.917 72.074 184.493 72.276 183.983 72.4495C183.478 72.6181 182.881 72.702 182.192 72.702C181.555 72.702 180.981 72.6054 180.471 72.4113C179.961 72.2171 179.524 71.9235 179.163 71.5304C178.805 71.1319 178.53 70.6343 178.336 70.0368C178.142 69.4343 178.045 68.7221 178.045 67.9V66.0539C178.045 65.2368 178.142 64.5245 178.336 63.9172C178.535 63.3093 178.813 62.8088 179.17 62.4157C179.527 62.0225 179.951 61.7289 180.44 61.5348C180.93 61.3358 181.473 61.2363 182.07 61.2363C182.963 61.2363 183.695 61.3868 184.266 61.6882C184.842 61.9892 185.274 62.4235 185.559 62.9902C185.845 63.552 185.996 64.2333 186.011 65.0353H183.501C183.48 64.6113 183.419 64.272 183.317 64.0167C183.215 63.7613 183.07 63.5799 182.881 63.4725C182.692 63.3603 182.452 63.3044 182.162 63.3044C181.927 63.3044 181.718 63.35 181.534 63.4421C181.356 63.5338 181.203 63.6872 181.075 63.9015C180.953 64.1108 180.858 64.3917 180.792 64.7441C180.731 65.0966 180.7 65.5279 180.7 66.0387V67.9C180.7 68.4054 180.731 68.8343 180.792 69.1868C180.854 69.5387 180.948 69.8196 181.075 70.0289C181.203 70.2382 181.374 70.3917 181.588 70.4887C181.802 70.5858 182.068 70.6343 182.384 70.6343C182.577 70.6343 182.738 70.6088 182.866 70.5578C182.993 70.5064 183.1 70.448 183.187 70.3814C183.274 70.3152 183.345 70.2691 183.402 70.2436V68.4358H182.07V66.5902H186.019ZM193.288 63.7407L191.214 72.549H188.398L191.834 61.3971H193.594L193.288 63.7407ZM194.91 72.549L192.836 63.7407L192.492 61.3971H194.282L197.726 72.549H194.91ZM194.994 68.3902V70.4657H190.166V68.3902H194.994ZM204.888 69.5848C204.888 69.4113 204.871 69.2554 204.835 69.1176C204.804 68.9745 204.74 68.8422 204.643 68.7196C204.552 68.5971 204.411 68.4745 204.223 68.352C204.034 68.224 203.781 68.0912 203.465 67.9534C203.067 67.7902 202.677 67.6064 202.294 67.402C201.912 67.1926 201.567 66.95 201.261 66.6745C200.96 66.3936 200.718 66.0667 200.534 65.6941C200.35 65.3162 200.259 64.877 200.259 64.3765C200.259 63.8966 200.35 63.4652 200.534 63.0823C200.723 62.6941 200.981 62.3647 201.307 62.0941C201.639 61.8181 202.029 61.6088 202.478 61.4662C202.927 61.3181 203.417 61.2441 203.947 61.2441C204.651 61.2441 205.271 61.3868 205.806 61.6725C206.347 61.9534 206.768 62.3544 207.069 62.8755C207.375 63.3912 207.528 64.001 207.528 64.7059H204.919C204.919 64.425 204.883 64.1774 204.812 63.9627C204.74 63.7485 204.628 63.5799 204.475 63.4573C204.327 63.3348 204.131 63.2735 203.886 63.2735C203.666 63.2735 203.48 63.3245 203.327 63.427C203.179 63.5289 203.067 63.6667 202.991 63.8402C202.914 64.0088 202.876 64.1951 202.876 64.3995C202.876 64.5681 202.914 64.7211 202.991 64.8588C203.067 64.9917 203.172 65.1172 203.304 65.2343C203.442 65.352 203.6 65.4642 203.778 65.5716C203.962 65.6784 204.158 65.7833 204.368 65.8853C204.873 66.0745 205.319 66.2863 205.707 66.5211C206.1 66.751 206.429 67.0137 206.694 67.3098C206.959 67.601 207.158 67.9328 207.291 68.3059C207.429 68.6784 207.497 69.1 207.497 69.5696C207.497 70.0701 207.416 70.5142 207.252 70.9024C207.094 71.2902 206.862 71.6196 206.556 71.8902C206.25 72.1559 205.88 72.3574 205.447 72.4956C205.018 72.6333 204.534 72.702 203.993 72.702C203.498 72.702 203.011 72.6309 202.532 72.4877C202.057 72.3397 201.626 72.1152 201.238 71.8137C200.856 71.5073 200.55 71.1167 200.32 70.6417C200.09 70.1618 199.976 69.5926 199.976 68.9338H202.608C202.608 69.2608 202.634 69.5363 202.684 69.7608C202.735 69.9858 202.815 70.1671 202.921 70.3049C203.034 70.4377 203.177 70.5348 203.35 70.5961C203.524 70.652 203.738 70.6804 203.993 70.6804C204.228 70.6804 204.409 70.6319 204.536 70.5348C204.669 70.4324 204.761 70.2995 204.812 70.1363C204.863 69.9676 204.888 69.7838 204.888 69.5848Z" fill="white"/>
</g>
<defs>
<clipPath id="clip0_708_428">
<rect width="238" height="175" fill="white"/>
</clipPath>
</defs>
</svg>
